# xmcd
#
# Track frame offsets:
#	150
#	16560
#	39915
#	64480
#	86427
#	105045
#	126517
#	140540
#	158855
#	176682
#	196159
#	212765
#	233565
#	244309
#	259825
#	271317
#
# Disc length: 3866 seconds
#
# Revision: 1
# Processed by: cddbd v1.5PL3 Copyright (c) Steve Scherf et al.
# Submitted via: audiograbber 1.82.02
#
DISCID=d40f1810
DTITLE=Various Artist - Ultimate Salsa CD 3
DYEAR=2000
DGENRE=Salsa
TTITLE0=Serpiente Mala
TTITLE1=Margarita
TTITLE2=Latino
TTITLE3=Sueno Contigo
TTITLE4=Rompe Cintura
TTITLE5=Ojitos Bellos
TTITLE6=Cafe Con Leche
TTITLE7=El Embliguito
TTITLE8=Abirendo Puertas
TTITLE9=Rodolfo
TTITLE10=El Baile De La Botella
TTITLE11=Marinerito, Marineron
TTITLE12=Tiburon
TTITLE13=El Bigote
TTITLE14=Que Siga El Baile
TTITLE15=Como Un Trueno
EXTD=3 CD Set
EXTT0=
EXTT1=
EXTT2=
EXTT3=
EXTT4=
EXTT5=
EXTT6=
EXTT7=
EXTT8=
EXTT9=
EXTT10=
EXTT11=
EXTT12=
EXTT13=
EXTT14=
EXTT15=
PLAYORDER=
